<svg height="100" width="100" viewBox="0 0 95 95" xml:space="preserve" xmlns="http://www.w3.org/2000/svg"><path d="M94.909 19.374C94.909 8.674 86.235 0 75.534 0 64.888 0 56.254 8.591 56.17 19.217l-15.63 2.09c-1.962-6.006-7.6-10.349-14.259-10.349-8.284 0-15.002 6.717-15.002 15.002 0 6.642 4.321 12.267 10.303 14.24l-2.205 16.055c-10.66.05-19.285 8.7-19.285 19.37C.091 86.325 8.765 95 19.466 95c10.677 0 19.331-8.638 19.37-19.304l18.092-2.501c1.98 5.971 7.598 10.285 14.234 10.285 8.284 0 15.002-6.716 15.002-15.002 0-6.89-4.652-12.681-10.983-14.44l1.365-15.34c10.229-.53 18.363-8.966 18.363-19.324ZM56.194 67.8 38.08 70.305a19.39 19.39 0 0 0-13.312-13.3l2.204-16.077c7.713-.354 13.893-6.516 14.27-14.222l15.655-2.094a19.376 19.376 0 0 0 14.226 13.612l-1.365 15.322c-7.4.688-13.224 6.754-13.563 14.254z" style="fill:#0482d8;fill-opacity:1;stroke-width:1.08873796"/></svg>